<svg xmlns="http://www.w3.org/2000/svg" width="1600" height="1000" viewBox="0 0 1600 1000">
    <defs>
      <linearGradient id="g" x1="0" y1="0" x2="1" y2="1">
        <stop offset="0" stop-color="#020708"/>
        <stop offset=".45" stop-color="#061c24"/>
        <stop offset="1" stop-color="#00110e"/>
      </linearGradient>
      <radialGradient id="r" cx=".5" cy=".45" r=".7">
        <stop offset="0" stop-color="#00ffff" stop-opacity=".16"/>
        <stop offset=".55" stop-color="#1e90ff" stop-opacity=".08"/>
        <stop offset="1" stop-color="#000000" stop-opacity="0"/>
      </radialGradient>
      <filter id="glow"><feGaussianBlur stdDeviation="8"/></filter>
      <pattern id="grid" width="44" height="44" patternUnits="userSpaceOnUse">
        <path d="M44 0H0V44" fill="none" stroke="#00ffff" stroke-opacity=".045"/>
      </pattern>
    </defs>
    <rect width="1600" height="1000" fill="url(#g)"/>
    <rect width="1600" height="1000" fill="url(#r)"/>
    <rect width="1600" height="1000" fill="url(#grid)"/>
        <g fill="none" stroke="#00ffff" stroke-opacity=".20" stroke-width="4">
          <circle cx="240" cy="260" r="150"/><circle cx="240" cy="260" r="92"/>
          <path d="M240 74v72M240 374v72M54 260h72M354 260h72M109 129l51 51M320 340l51 51M371 129l-51 51M160 340l-51 51"/>
        </g>
        <path d="M1040 690c75-90 180-145 305-126-70 23-99 61-113 99 74-12 146 8 221 72-119-34-207-14-280 39-65 48-134 65-225 42 38-20 67-57 92-126z" fill="#00ffff" opacity=".09"/>
        <path d="M1110 675c65-62 116-104 196-104-51 24-85 58-101 102 47-8 93 4 142 40-79-20-144-1-199 40z" fill="#7fff00" opacity=".08"/>
        <text x="70" y="900" fill="#c0c0c0" opacity=".13" font-family="Verdana" font-size="64" font-weight="700">CREATE • SURVIVE • BUILD • LOVE</text>
        </svg>