<svg xmlns="http://www.w3.org/2000/svg" width="1600" height="1000" viewBox="0 0 1600 1000">
    <defs>
      <linearGradient id="g" x1="0" y1="0" x2="1" y2="1">
        <stop offset="0" stop-color="#020708"/>
        <stop offset=".45" stop-color="#061c24"/>
        <stop offset="1" stop-color="#00110e"/>
      </linearGradient>
      <radialGradient id="r" cx=".5" cy=".45" r=".7">
        <stop offset="0" stop-color="#00ffff" stop-opacity=".16"/>
        <stop offset=".55" stop-color="#1e90ff" stop-opacity=".08"/>
        <stop offset="1" stop-color="#000000" stop-opacity="0"/>
      </radialGradient>
      <filter id="glow"><feGaussianBlur stdDeviation="8"/></filter>
      <pattern id="grid" width="44" height="44" patternUnits="userSpaceOnUse">
        <path d="M44 0H0V44" fill="none" stroke="#00ffff" stroke-opacity=".045"/>
      </pattern>
    </defs>
    <rect width="1600" height="1000" fill="url(#g)"/>
    <rect width="1600" height="1000" fill="url(#r)"/>
    <rect width="1600" height="1000" fill="url(#grid)"/>
        <g opacity=".13" fill="none" stroke="#00ffff" stroke-width="4">
          <rect x="110" y="170" width="450" height="470" rx="14"/>
          <path d="M180 220h310v90H180zM180 345h310v90H180zM180 470h310v90H180z"/>
        </g>
        <g opacity=".15" stroke="#1e90ff" fill="none" stroke-width="4">
          <path d="M760 760V250M1040 760V180M1320 760V310"/>
          <path d="M690 760h700"/>
          <path d="M740 240l40-80 40 80M1020 170l40-80 40 80M1300 300l40-80 40 80"/>
        </g>
        <g fill="#c0c0c0" opacity=".12">
          <circle cx="900" cy="420" r="45"/><circle cx="1160" cy="470" r="35"/>
        </g>
        </svg>